<svg width="32" height="32" viewBox="0 0 100 100" fill="none" xmlns="http://www.w3.org/2000/svg">
  <defs>
    <linearGradient id="brandGradient" x1="0%" y1="0%" x2="100%" y2="100%">
      <stop offset="0%" stopColor="#592DB5" />
      <stop offset="100%" stopColor="#773DF2" />
    </linearGradient>
  </defs>
  <rect x="2" y="2" width="96" height="96" rx="20" fill="url(#brandGradient)" />
  <path d="M20 24H38C50 24 60 33 60 46V54C60 67 50 76 38 76H20V24Z" fill="white" fillOpacity="0.95" />
  <path d="M30 34H36C43 34 49 39 49 46V54C49 61 43 66 36 66H30V34Z" fill="url(#brandGradient)" />
  <path d="M44 76V58L56 76H68V24H56V42L44 24H32V76H44Z" fill="white" fillOpacity="0.92" />
  <path d="M56 42V66L44 44V24H56V42Z" fill="url(#brandGradient)" fillOpacity="0.7" />
</svg>
