<svg width="32" height="32" viewBox="0 0 100 100" fill="none" xmlns="http://www.w3.org/2000/svg">
  <defs>
    <linearGradient id="bg" x1="0%" y1="0%" x2="100%" y2="100%">
      <stop offset="0%" stopColor="#592DB5" />
      <stop offset="100%" stopColor="#773DF2" />
    </linearGradient>
  </defs>
  <rect x="2" y="2" width="96" height="96" rx="20" fill="#0A0A14" />
  <path d="M22 26H40C52 26 62 35 62 48V52C62 65 52 74 40 74H22V26Z" fill="url(#bg)" />
  <path d="M32 36H38C45 36 51 41 51 48V52C51 59 45 64 38 64H32V36Z" fill="#0A0A14" />
  <path d="M46 74V56L58 74H70V26H58V44L46 26H34V74H46Z" fill="url(#bg)" />
  <path d="M58 44V64L46 42V26H58V44Z" fill="#0A0A14" />
</svg>
